<?xml version="1.0" encoding="UTF-8"?>
<svg version="1.1" xmlns="http://www.w3.org/2000/svg" width="512" height="512">
<path d="M0 0 C-0.88288871 4.66165238 -3.15586681 8.86113669 -5.20898438 13.1015625 C-11.41482576 26.66595015 -12.80504009 41.19765363 -14 55.875 C-14.82708542 65.99133689 -15.76755865 75.95223166 -17.9375 85.8828125 C-18.17412354 86.97866165 -18.17412354 86.97866165 -18.41552734 88.09664917 C-19.42305971 92.4168737 -20.87220863 96.11475152 -23 100 C-23.33 100.66 -23.66 101.32 -24 102 C-22.85954224 101.9685791 -22.85954224 101.9685791 -21.69604492 101.93652344 C-18.19333552 101.85248607 -14.69083923 101.80106377 -11.1875 101.75 C-9.99189453 101.71648437 -8.79628906 101.68296875 -7.56445312 101.6484375 C0.42939177 101.56131113 6.70900632 102.68905087 14 106 C13.835 104.906875 13.67 103.81375 13.5 102.6875 C11.99638123 90.1057488 13.07770549 78.15911985 20.15234375 67.3125 C31.15611994 53.54033192 48.90917441 49.18364187 64.91699219 44.00683594 C69.67181125 42.4540268 74.40102411 40.83141171 79.125 39.1875 C79.93517578 38.9097876 80.74535156 38.6320752 81.58007812 38.34594727 C85.90478172 36.83789488 89.90623404 35.0717691 94 33 C94.66 33 95.32 33 96 33 C92.25640904 64.08165656 64.45169947 95.16122203 40.85546875 113.77734375 C39 115 39 115 37 115 C37.85271484 115.94746094 37.85271484 115.94746094 38.72265625 116.9140625 C48.75676672 128.53955944 53.48561199 139.83031424 56.22753906 154.82910156 C57.47850413 161.50472686 58.80413225 168.15989866 64.0703125 172.83984375 C64.74835938 173.20207031 65.42640625 173.56429687 66.125 173.9375 C66.80820312 174.31777344 67.49140625 174.69804687 68.1953125 175.08984375 C69.4623834 175.72886435 70.73072746 176.36536373 72 177 C72 177.66 72 178.32 72 179 C67.61538462 182 67.61538462 182 65 182 C65 182.66 65 183.32 65 184 C65.94875 184.309375 66.8975 184.61875 67.875 184.9375 C71 186 71 186 73 187 C71.56356879 190.65353155 69.94164969 191.93978166 66.5 193.75 C65.7059375 194.17796875 64.911875 194.6059375 64.09375 195.046875 C62 196 62 196 60 196 C59.95875 196.78375 59.9175 197.5675 59.875 198.375 C57.29283722 209.07253153 48.12482288 220.8606073 39 227 C38.34 227 37.68 227 37 227 C37 227.66 37 228.32 37 229 C20.31356278 241.54643102 -2.25627027 244.28269543 -22.45947266 241.68359375 C-27.09506074 240.83002401 -31.52579252 239.4849322 -36 238 C-37.20914063 237.62617188 -38.41828125 237.25234375 -39.6640625 236.8671875 C-52.18742172 232.74730244 -62.59377456 225.97317431 -73 218 C-73.92941406 217.30261719 -74.85882813 216.60523438 -75.81640625 215.88671875 C-76.53699219 215.26410156 -77.25757813 214.64148438 -78 214 C-78 213.34 -78 212.68 -78 212 C-78.86625 211.63648438 -78.86625 211.63648438 -79.75 211.265625 C-85.784035 207.87148031 -90.53715814 200.91568818 -94 195 C-94 194.34 -94 193.68 -94 193 C-91.69 192.67 -89.38 192.34 -87 192 C-89.97 189.03 -92.94 186.06 -96 183 C-95.67 182.01 -95.34 181.02 -95 180 C-92.671875 179.0078125 -92.671875 179.0078125 -89.75 178.125 C-83.92592757 176.13334829 -80.75383493 173.89824712 -77.52734375 168.56640625 C-75.01077639 162.69012491 -74.1510823 156.46547793 -72.98242188 150.20507812 C-71.24613336 141.31011138 -69.41871045 131.95957077 -63.25 125 C-60.42901739 121.99030163 -60.42901739 121.99030163 -60 118 C-61.34907453 115.84559557 -62.73654624 113.77081825 -64.1875 111.6875 C-68.81833165 104.7975931 -71.63921298 97.98873464 -74 90 C-74.19980469 89.3296875 -74.39960938 88.659375 -74.60546875 87.96875 C-77.43784304 73.83492184 -72.54080146 59.81767394 -65 48 C-63.11211753 45.23175784 -61.11558578 42.59740767 -59 40 C-58.52820313 39.40574219 -58.05640625 38.81148437 -57.5703125 38.19921875 C-53.85350374 33.66873024 -49.7174645 29.4955987 -45 26 C-44.34 26 -43.68 26 -43 26 C-43 25.34 -43 24.68 -43 24 C-39.18564572 21.07222537 -35.05820663 18.57623858 -31 16 C-29.95585937 15.33226562 -28.91171875 14.66453125 -27.8359375 13.9765625 C-21.95298139 10.28329228 -15.98138023 6.80833032 -9.875 3.5 C-9.23522217 3.149375 -8.59544434 2.79875 -7.9362793 2.4375 C-5.0806376 0.91673953 -3.28570891 0 0 0 Z " fill="#F0E5FB" transform="translate(256,135)"/>
<path d="M0 0 C-0.88288871 4.66165238 -3.15586681 8.86113669 -5.20898438 13.1015625 C-11.41482576 26.66595015 -12.80504009 41.19765363 -14 55.875 C-14.82708542 65.99133689 -15.76755865 75.95223166 -17.9375 85.8828125 C-18.17412354 86.97866165 -18.17412354 86.97866165 -18.41552734 88.09664917 C-19.42305971 92.4168737 -20.87220863 96.11475152 -23 100 C-23.33 100.66 -23.66 101.32 -24 102 C-22.85954224 101.9685791 -22.85954224 101.9685791 -21.69604492 101.93652344 C-18.19333552 101.85248607 -14.69083923 101.80106377 -11.1875 101.75 C-9.99189453 101.71648437 -8.79628906 101.68296875 -7.56445312 101.6484375 C0.42939177 101.56131113 6.70900632 102.68905087 14 106 C13.835 104.906875 13.67 103.81375 13.5 102.6875 C11.99638123 90.1057488 13.07770549 78.15911985 20.15234375 67.3125 C31.15611994 53.54033192 48.90917441 49.18364187 64.91699219 44.00683594 C69.67181125 42.4540268 74.40102411 40.83141171 79.125 39.1875 C79.93517578 38.9097876 80.74535156 38.6320752 81.58007812 38.34594727 C85.90478172 36.83789488 89.90623404 35.0717691 94 33 C94.66 33 95.32 33 96 33 C92.25640904 64.08165656 64.45169947 95.16122203 40.85546875 113.77734375 C39 115 39 115 37 115 C37.85271484 115.94746094 37.85271484 115.94746094 38.72265625 116.9140625 C48.75676672 128.53955944 53.48561199 139.83031424 56.22753906 154.82910156 C57.47850413 161.50472686 58.80413225 168.15989866 64.0703125 172.83984375 C64.74835938 173.20207031 65.42640625 173.56429687 66.125 173.9375 C66.80820312 174.31777344 67.49140625 174.69804687 68.1953125 175.08984375 C69.4623834 175.72886435 70.73072746 176.36536373 72 177 C72 177.66 72 178.32 72 179 C67.61538462 182 67.61538462 182 65 182 C65 182.66 65 183.32 65 184 C65.94875 184.309375 66.8975 184.61875 67.875 184.9375 C71 186 71 186 73 187 C71.56356879 190.65353155 69.94164969 191.93978166 66.5 193.75 C65.7059375 194.17796875 64.911875 194.6059375 64.09375 195.046875 C62 196 62 196 60 196 C59.95875 196.78375 59.9175 197.5675 59.875 198.375 C57.29283722 209.07253153 48.12482288 220.8606073 39 227 C38.34 227 37.68 227 37 227 C37 227.66 37 228.32 37 229 C20.31356278 241.54643102 -2.25627027 244.28269543 -22.45947266 241.68359375 C-27.09506074 240.83002401 -31.52579252 239.4849322 -36 238 C-37.20914063 237.62617188 -38.41828125 237.25234375 -39.6640625 236.8671875 C-52.18742172 232.74730244 -62.59377456 225.97317431 -73 218 C-73.92941406 217.30261719 -74.85882813 216.60523438 -75.81640625 215.88671875 C-76.53699219 215.26410156 -77.25757813 214.64148438 -78 214 C-78 213.34 -78 212.68 -78 212 C-78.86625 211.63648438 -78.86625 211.63648438 -79.75 211.265625 C-85.784035 207.87148031 -90.53715814 200.91568818 -94 195 C-94 194.34 -94 193.68 -94 193 C-91.69 192.67 -89.38 192.34 -87 192 C-89.97 189.03 -92.94 186.06 -96 183 C-95.67 182.01 -95.34 181.02 -95 180 C-92.671875 179.0078125 -92.671875 179.0078125 -89.75 178.125 C-83.92592757 176.13334829 -80.75383493 173.89824712 -77.52734375 168.56640625 C-75.01077639 162.69012491 -74.1510823 156.46547793 -72.98242188 150.20507812 C-71.24613336 141.31011138 -69.41871045 131.95957077 -63.25 125 C-60.42901739 121.99030163 -60.42901739 121.99030163 -60 118 C-61.34907453 115.84559557 -62.73654624 113.77081825 -64.1875 111.6875 C-68.81833165 104.7975931 -71.63921298 97.98873464 -74 90 C-74.19980469 89.3296875 -74.39960938 88.659375 -74.60546875 87.96875 C-77.43784304 73.83492184 -72.54080146 59.81767394 -65 48 C-63.11211753 45.23175784 -61.11558578 42.59740767 -59 40 C-58.52820313 39.40574219 -58.05640625 38.81148437 -57.5703125 38.19921875 C-53.85350374 33.66873024 -49.7174645 29.4955987 -45 26 C-44.34 26 -43.68 26 -43 26 C-43 25.34 -43 24.68 -43 24 C-39.18564572 21.07222537 -35.05820663 18.57623858 -31 16 C-29.95585937 15.33226562 -28.91171875 14.66453125 -27.8359375 13.9765625 C-21.95298139 10.28329228 -15.98138023 6.80833032 -9.875 3.5 C-9.23522217 3.149375 -8.59544434 2.79875 -7.9362793 2.4375 C-5.0806376 0.91673953 -3.28570891 0 0 0 Z M-51 38 C-51.66257813 38.58910156 -52.32515625 39.17820312 -53.0078125 39.78515625 C-61.8830326 47.88429208 -69.79044125 61.1463835 -70.56640625 73.33203125 C-70.59389026 75.15864787 -70.59195328 76.98591407 -70.5625 78.8125 C-70.55226807 79.77518799 -70.54203613 80.73787598 -70.53149414 81.72973633 C-70.13107608 95.21803998 -64.45491195 106.34973398 -55.78515625 116.625 C-54 119 -54 119 -54 122 C-55.46694928 123.23174222 -56.93817757 124.45915937 -58.44091797 125.64697266 C-67.13573618 133.19264796 -68.53991288 147.17102053 -70.22680664 157.76049805 C-71.44296686 165.17901987 -72.74602485 171.74602485 -78.25 177.25 C-81.70913144 179.45126546 -85.28714199 181.26794713 -89 183 C-86.8705038 187.65827293 -84.08054861 189.42123904 -79.7421875 191.7890625 C-78 193 -78 193 -77 196 C-79.97 196.33 -82.94 196.66 -86 197 C-82.25026235 210.33240053 -65.13066388 219.87116313 -53.875 226.4375 C-47.15306916 230.11510575 -40.32033264 232.77097137 -33 235 C-32.05769531 235.3196875 -31.11539063 235.639375 -30.14453125 235.96875 C-15.13666543 240.3435125 4.67929235 240.57812819 19 234 C20.01707031 233.56429687 21.03414063 233.12859375 22.08203125 232.6796875 C37.03453691 225.79589244 48.70874535 214.82907883 54.91064453 199.53320312 C57.08209762 194.58165963 59.42079883 192.73211637 64.38842773 190.60693359 C64.92024658 190.40664551 65.45206543 190.20635742 66 190 C66 189.34 66 188.68 66 188 C65.01 187.175 64.02 186.35 63 185.5 C62.01 184.675 61.02 183.85 60 183 C60 182.34 60 181.68 60 181 C60.99 180.34 61.98 179.68 63 179 C63 178.34 63 177.68 63 177 C62.278125 176.38125 61.55625 175.7625 60.8125 175.125 C54.31168458 168.73436789 52.73995172 159.2357924 51.125 150.625 C48.6294919 137.67395284 43.78116476 126.29995983 33 118 C32.34 118 31.68 118 31 118 C31.31935662 115.04758066 31.84668512 114.12994201 34.15234375 112.17578125 C35.53099609 111.25345703 35.53099609 111.25345703 36.9375 110.3125 C42.72258344 106.27117392 47.87473666 101.84099099 53 97 C53.73863281 96.32582031 54.47726562 95.65164062 55.23828125 94.95703125 C69.79951881 81.17170333 81.96615046 61.71817811 89 43 C89 42.34 89 41.68 89 41 C80.78667124 42.5470311 72.9721816 45.1947553 65.08154297 47.89331055 C62.77301079 48.67966187 60.4591141 49.44846959 58.14453125 50.21679688 C41.52523794 55.82686797 27.63270736 61.94179766 19 78 C14.72728703 87.80653506 16.73928431 99.92770422 19 110 C18.34 110 17.68 110 17 110 C17 110.66 17 111.32 17 112 C15.91332031 111.47599609 15.91332031 111.47599609 14.8046875 110.94140625 C13.83789062 110.48636719 12.87109375 110.03132813 11.875 109.5625 C10.92367187 109.11003906 9.97234375 108.65757812 8.9921875 108.19140625 C2.5041565 105.60805187 -3.9953429 105.84737086 -10.875 105.875 C-12.30779297 105.86919922 -12.30779297 105.86919922 -13.76953125 105.86328125 C-19.27334794 105.87083107 -24.55562861 106.18913618 -30 107 C-30.671875 105.234375 -30.671875 105.234375 -31 103 C-29.890625 101.140625 -29.890625 101.140625 -28.25 99.25 C-22.59186878 92.71293578 -21.45827532 85.04441337 -20.5 76.75 C-20.3774585 75.76563965 -20.25491699 74.7812793 -20.12866211 73.76708984 C-19.44188216 68.14049063 -18.84220906 62.50801585 -18.28515625 56.8671875 C-15.24063128 26.17167454 -15.24063128 26.17167454 -10.375 15.23828125 C-8.80458251 12.1261211 -8.80458251 12.1261211 -9 9 C-22.77213031 9 -41.75526799 29.00006619 -51 38 Z " fill="#752DA8" transform="translate(256,135)"/>
<path d="M0 0 C-1.2065625 1.175625 -1.2065625 1.175625 -2.4375 2.375 C-5.31307645 5.16150379 -5.31307645 5.16150379 -6.09333801 8.80566406 C-6.07190987 9.89959473 -6.07190987 9.89959473 -6.05004883 11.015625 C-6.03706253 11.84408936 -6.02407623 12.67255371 -6.01069641 13.52612305 C-5.99298691 14.42500244 -5.9752774 15.32388184 -5.95703125 16.25 C-5.93461967 18.15754142 -5.91316685 20.06509429 -5.89257812 21.97265625 C-5.85566901 24.97671618 -5.8128939 27.98018846 -5.75317383 30.98388672 C-5.69818336 33.88517398 -5.66944181 36.78581777 -5.64453125 39.6875 C-5.62074905 40.57018555 -5.59696686 41.45287109 -5.57246399 42.36230469 C-5.53171625 52.21709581 -9.24685526 60.83127712 -16 68 C-26.20710059 77 -26.20710059 77 -33 77 C-39.67459872 62.06315529 -41.94727158 44.69679246 -36.39453125 29 C-33.9606476 23.76408222 -30.72419822 19.38721836 -27 15 C-26.443125 14.34257812 -25.88625 13.68515625 -25.3125 13.0078125 C-19.88110272 7.13250294 -8.46209586 -3.13410958 0 0 Z " fill="#F75A64" transform="translate(235,161)"/>
<path d="M0 0 C-2.090403 19.49079981 -22.67653312 41.55989554 -37 54 C-46.29005059 61 -46.29005059 61 -52 61 C-54.71704434 52.51060041 -56.26970477 42.36531831 -52.0625 34.125 C-45.60573309 24.53876947 -36.9530534 18.54456429 -27 13 C-25.57276611 12.20045898 -25.57276611 12.20045898 -24.11669922 11.38476562 C-20.87619064 9.57735817 -17.62769489 7.78537719 -14.375 6 C-12.77289673 5.11683105 -12.77289673 5.11683105 -11.13842773 4.21582031 C-10.13110596 3.67022461 -9.12378418 3.12462891 -8.0859375 2.5625 C-7.1789209 2.06878906 -6.2719043 1.57507813 -5.33740234 1.06640625 C-3 0 -3 0 0 0 Z " fill="#F75A64" transform="translate(334,183)"/>
<path d="M0 0 C-0.66 0.33 -1.32 0.66 -2 1 C-0.58845234 4.41124018 1.06221223 5.8456223 4 8 C4 8.66 4 9.32 4 10 C3.46600586 10.20246338 2.93201172 10.40492676 2.38183594 10.61352539 C-2.51535691 12.71526516 -4.8496396 14.46931373 -6.93701172 19.38110352 C-7.33944092 20.39901978 -7.33944092 20.39901978 -7.75 21.4375 C-14.59251454 36.704926 -26.78450979 46.98202373 -41.87109375 53.859375 C-50.90051226 57.15099823 -59.06921104 58.52677646 -68.6875 58.4375 C-69.82727295 58.43065186 -70.9670459 58.42380371 -72.14135742 58.41674805 C-81.3443092 58.24259055 -89.29431048 56.99381178 -98 54 C-99.64742187 53.4740625 -99.64742187 53.4740625 -101.328125 52.9375 C-113.71963522 48.62740949 -124.36980583 41.57370088 -134.5625 33.4375 C-135.21710205 32.91994141 -135.8717041 32.40238281 -136.54614258 31.86914062 C-141.07770481 28.13788392 -144.92456632 24.02999501 -148 19 C-148 18.34 -148 17.68 -148 17 C-145.03 16.67 -142.06 16.34 -139 16 C-140.22053859 12.33838422 -141.36782304 11.83729526 -144.5625 9.8125 C-145.38878906 9.28269531 -146.21507812 8.75289063 -147.06640625 8.20703125 C-147.70449219 7.80871094 -148.34257812 7.41039062 -149 7 C-148.34 6.67 -147.68 6.34 -147 6 C-144.5390625 7.1796875 -144.5390625 7.1796875 -141.625 8.875 C-138.42617407 10.72876705 -135.65507683 12.32441708 -132 13 C-133.12888285 16.27376028 -133.93539253 16.96573351 -137.0859375 18.63671875 C-138.04757813 19.08660156 -139.00921875 19.53648437 -140 20 C-125.84492573 35.50460466 -107.81884015 47.71085702 -87 52 C-86.12214844 52.18175781 -85.24429688 52.36351562 -84.33984375 52.55078125 C-64.03293449 55.28211992 -45.1214745 52.64644081 -28.5078125 40.12109375 C-19.75179905 32.82441587 -14.73523927 24.14260202 -10.45703125 13.6875 C-9 11 -9 11 -5 9 C-5.33 6.03 -5.66 3.06 -6 0 C-3.50907189 -1.24546405 -2.58919267 -0.7767578 0 0 Z " fill="#C7C4E0" transform="translate(318,315)"/>
<path d="M0 0 C4.28264271 1.94665578 7.13073465 4.50146994 9.30078125 8.75 C11.06910851 14.4402598 11.19599244 20.89238031 9.046875 26.4765625 C7.84254032 28.51173566 6.56238109 30.22872116 5 32 C4.29875 32.825 3.5975 33.65 2.875 34.5 C-1.66648087 36.86946828 -5.99637005 36.83761206 -11 36 C-14.7889785 34.27704398 -16.6885027 31.49839569 -18.875 28 C-21.11502534 21.7822327 -21.47442351 14.28731531 -18.7578125 8.23046875 C-13.68662953 0.42185617 -9.14017205 -1.03448939 0 0 Z " fill="#EFE1FB" transform="translate(287,278)"/>
<path d="M0 0 C4.440839 2.20837383 7.02358033 5.41288807 8.9375 9.9375 C11.04855735 16.84760698 10.14475468 22.63019903 7 29 C4.65898835 32.47375922 2.84731325 34.40848553 -1 36 C-5.21515614 36.73429856 -9.24122624 36.91861603 -13.1015625 34.90234375 C-17.88816758 31.08324395 -20.5053467 26.77791456 -21.3125 20.61328125 C-21.69541387 12.79944508 -19.44609095 7.86371623 -14.4375 2 C-9.57317228 -0.83015431 -5.4942767 -1.10842447 0 0 Z " fill="#FAF4FC" transform="translate(231,278)"/>
<path d="M0 0 C1.13308594 -0.01675781 2.26617187 -0.03351563 3.43359375 -0.05078125 C6.78575713 0.33842124 8.1286897 1.04612629 10.5625 3.3125 C9.87492705 7.80593448 7.55351095 9.16221422 4.05859375 11.75 C2.10143897 13.4334822 2.10143897 13.4334822 2.5625 17.3125 C5.86195591 18.2488921 5.86195591 18.2488921 9.5625 18.3125 C11.95913957 16.08762121 11.95913957 16.08762121 13.5625 13.3125 C14.2225 12.6525 14.8825 11.9925 15.5625 11.3125 C15.06092722 18.83609165 15.06092722 18.83609165 12.6171875 21.171875 C9.96818155 23.93167588 9.64716791 26.08460591 8.9375 29.8125 C7.15368921 38.96240007 7.15368921 38.96240007 3.5 42.0625 C-0.57601214 43.79697325 -4.07561004 44.12795033 -8.4375 43.3125 C-15.75012551 38.70825431 -17.76105838 32.03096307 -19.6875 24.0625 C-19.873125 23.34320313 -20.05875 22.62390625 -20.25 21.8828125 C-21.56426222 16.56602444 -21.56426222 16.56602444 -20.4375 14.3125 C-19.509375 15.5190625 -19.509375 15.5190625 -18.5625 16.75 C-16.69585959 19.35124519 -16.69585959 19.35124519 -14.4375 20.3125 C-12.32196939 20.3274921 -12.32196939 20.3274921 -10 20.0625 C-9.21753906 19.99546875 -8.43507812 19.9284375 -7.62890625 19.859375 C-5.01953938 19.2081961 -4.07634546 18.41743912 -2.4375 16.3125 C-2.1075 15.3225 -1.7775 14.3325 -1.4375 13.3125 C-2.18 13.085625 -2.9225 12.85875 -3.6875 12.625 C-7.02716387 11.03106952 -8.4973925 9.4465198 -10.4375 6.3125 C-10.375 4.125 -10.375 4.125 -9.4375 2.3125 C-5.89151732 -0.05148846 -4.20420901 0.01431626 0 0 Z " fill="#9809CA" transform="translate(253.4375,318.6875)"/>
<path d="M0 0 C-1.2065625 1.175625 -1.2065625 1.175625 -2.4375 2.375 C-5.31307645 5.16150379 -5.31307645 5.16150379 -6.09333801 8.80566406 C-6.07190987 9.89959473 -6.07190987 9.89959473 -6.05004883 11.015625 C-6.03706253 11.84408936 -6.02407623 12.67255371 -6.01069641 13.52612305 C-5.99298691 14.42500244 -5.9752774 15.32388184 -5.95703125 16.25 C-5.93461967 18.15754142 -5.91316685 20.06509429 -5.89257812 21.97265625 C-5.85566901 24.97671618 -5.8128939 27.98018846 -5.75317383 30.98388672 C-5.69818336 33.88517398 -5.66944181 36.78581777 -5.64453125 39.6875 C-5.62074905 40.57018555 -5.59696686 41.45287109 -5.57246399 42.36230469 C-5.53171625 52.21709581 -9.24685526 60.83127712 -16 68 C-26.20710059 77 -26.20710059 77 -33 77 C-39.67459872 62.06315529 -41.94727158 44.69679246 -36.39453125 29 C-33.9606476 23.76408222 -30.72419822 19.38721836 -27 15 C-26.443125 14.34257812 -25.88625 13.68515625 -25.3125 13.0078125 C-19.88110272 7.13250294 -8.46209586 -3.13410958 0 0 Z M-22.0078125 14.92578125 C-26.73111732 20.04092974 -30.00907101 25.73717597 -33 32 C-33.34289062 32.69480469 -33.68578125 33.38960937 -34.0390625 34.10546875 C-39.32596497 46.8780322 -35.97288277 60.79867691 -31 73 C-22.86255695 71.19167932 -17.99388464 65.33074314 -13 59 C-8.77829687 52.05461743 -8.85648501 45.11417639 -8.90234375 37.2265625 C-8.9037587 36.3028183 -8.90517365 35.3790741 -8.90663147 34.42733765 C-8.91220391 31.49319138 -8.92475131 28.55912299 -8.9375 25.625 C-8.94251856 23.62890736 -8.94708085 21.63281351 -8.95117188 19.63671875 C-8.96216431 14.75778275 -8.9794099 9.87890455 -9 5 C-13.07850242 5 -19.17447294 12.2082007 -22.0078125 14.92578125 Z " fill="#7C31A6" transform="translate(235,161)"/>
<path d="M0 0 C-2.090403 19.49079981 -22.67653312 41.55989554 -37 54 C-46.29005059 61 -46.29005059 61 -52 61 C-54.71704434 52.51060041 -56.26970477 42.36531831 -52.0625 34.125 C-45.60573309 24.53876947 -36.9530534 18.54456429 -27 13 C-25.57276611 12.20045898 -25.57276611 12.20045898 -24.11669922 11.38476562 C-20.87619064 9.57735817 -17.62769489 7.78537719 -14.375 6 C-12.77289673 5.11683105 -12.77289673 5.11683105 -11.13842773 4.21582031 C-10.13110596 3.67022461 -9.12378418 3.12462891 -8.0859375 2.5625 C-7.1789209 2.06878906 -6.2719043 1.57507813 -5.33740234 1.06640625 C-3 0 -3 0 0 0 Z M-6 5 C-7.54107422 5.87011719 -7.54107422 5.87011719 -9.11328125 6.7578125 C-10.11161987 7.32048828 -10.11161987 7.32048828 -11.13012695 7.89453125 C-12.59678317 8.72146349 -14.0627565 9.54960797 -15.52807617 10.37890625 C-19.58517702 12.66846454 -23.66964659 14.8683574 -27.8125 17 C-37.79348475 22.45647208 -47.29132793 29.8739838 -51 41 C-51.09455661 42.97734566 -51.12989394 44.95790083 -51.125 46.9375 C-51.12757813 47.97777344 -51.13015625 49.01804688 -51.1328125 50.08984375 C-51.01932023 52.57665971 -50.71928571 54.63092407 -50 57 C-40.11424618 55.8936521 -30.99995673 44.89636888 -24.92578125 37.4609375 C-19.07842281 29.88896549 -13.98545374 21.8948567 -9.04394531 13.71142578 C-8.10644696 12.17450729 -7.12978948 10.66163825 -6.1484375 9.15234375 C-5.57996094 8.08693359 -5.57996094 8.08693359 -5 7 C-5.495 6.01 -5.495 6.01 -6 5 Z " fill="#7B31A7" transform="translate(334,183)"/>
<path d="M0 0 C4.18968306 0.75414295 6.11478209 2.62069613 9.125 5.5625 C11.61955917 9.30433875 11.50106522 11.12493036 11.125 15.5625 C9.39896036 20.19555377 7.34546447 22.94983152 3.125 25.5625 C0.3125 25.8125 0.3125 25.8125 -1.875 25.5625 C-2.205 23.5825 -2.535 21.6025 -2.875 19.5625 C-4.855 19.5625 -6.835 19.5625 -8.875 19.5625 C-10.3709122 15.0747634 -10.64806515 11.22459007 -8.625 6.875 C-4.01706897 0.78594828 -4.01706897 0.78594828 0 0 Z " fill="#990ACB" transform="translate(224.875,286.4375)"/>
<path d="M0 0 C4.0908998 1.2418803 5.79636519 2.8022345 8.5 6.0625 C10.03597454 9.13444908 9.7265038 11.66494293 9.5 15.0625 C7.77396036 19.69555377 5.72046447 22.44983152 1.5 25.0625 C-1.3125 25.3125 -1.3125 25.3125 -3.5 25.0625 C-3.5 23.4125 -3.5 21.7625 -3.5 20.0625 C-6.97147842 19.31292843 -6.97147842 19.31292843 -10.5 19.0625 C-11.99142111 14.58823668 -12.24270548 10.74335977 -10.3125 6.375 C-7.1751015 2.37211226 -5.28068828 0.094298 0 0 Z " fill="#9909CB" transform="translate(283.5,286.9375)"/>
<path d="M0 0 C0.33 0 0.66 0 1 0 C2.09079081 21.88254017 2.09079081 21.88254017 2.1875 32.5 C2.20167969 33.7890625 2.21585938 35.078125 2.23046875 36.40625 C1.57237543 46.66804422 -2.71281752 54.36944538 -10.0390625 61.30078125 C-13.33335306 64.15539558 -15.58270473 66 -20 66 C-20.495 63.525 -20.495 63.525 -21 61 C-19.453125 60.071875 -19.453125 60.071875 -17.875 59.125 C-10.63208536 53.93473323 -7.23468731 45.36645128 -5 37 C-4.65453125 35.85273438 -4.3090625 34.70546875 -3.953125 33.5234375 C-2.2787819 26.77737408 -2.56844567 19.75683415 -2.43359375 12.84765625 C-2.40394531 11.76871094 -2.37429687 10.68976563 -2.34375 9.578125 C-2.32505859 8.60262695 -2.30636719 7.62712891 -2.28710938 6.62207031 C-1.99547392 3.95866488 -1.35555397 2.28766643 0 0 Z " fill="#E33644" transform="translate(224,168)"/>
<path d="M0 0 C0.33 0 0.66 0 1 0 C0.49835925 7.52461121 0.49835925 7.52461121 -1.94921875 9.859375 C-4.59823059 12.62443879 -4.88135227 14.76439736 -5.5625 18.5 C-6.35944289 22.81636151 -7.06343867 25.68111629 -10 29 C-10 28.34 -10 27.68 -10 27 C-10.680625 27.515625 -11.36125 28.03125 -12.0625 28.5625 C-15.84509052 30.41355493 -17.96667699 29.98930565 -22 29 C-22.66 28.34 -23.32 27.68 -24 27 C-23.8125 25.0625 -23.8125 25.0625 -23 23 C-22.46375 22.566875 -21.9275 22.13375 -21.375 21.6875 C-19.5797574 19.88334311 -19.5797574 19.88334311 -20.3125 16.3125 C-20.539375 15.219375 -20.76625 14.12625 -21 13 C-20.01 12.67 -19.02 12.34 -18 12 C-18 11.34 -18 10.68 -18 10 C-17.34 10 -16.68 10 -16 10 C-15.67 9.01 -15.34 8.02 -15 7 C-12 6 -12 6 -8.5625 6.75 C-7.386875 6.8325 -6.21125 6.915 -5 7 C-2.72493386 4.78480402 -1.40949367 2.81898734 0 0 Z " fill="#9D15CD" transform="translate(268,330)"/>
<path d="M0 0 C5.68290567 2.78784052 9.68225913 7.11352 12.3125 12.875 C14.03041873 20.68372151 13.10908909 27.92843624 8.8984375 34.796875 C5.65983204 39.01750921 2.13001842 41.54400811 -3.171875 42.31640625 C-8.61824815 42.59969076 -11.75850441 41.64965899 -16 38 C-20.72709307 33.13784712 -23.07148007 27.36228562 -23.5 20.625 C-23.2335624 14.19719294 -20.49476836 8.78241349 -16.23828125 4.03515625 C-11.23592055 -0.27722367 -6.46213225 -1.25984427 0 0 Z M-18.3125 9.9375 C-21.3939592 15.7734064 -21.09953855 23.27215273 -19.26953125 29.4765625 C-17.35885001 33.64106774 -15.14495417 36.88342766 -11 39 C-6.3936008 39.81415428 -2.06229912 40.08698799 2.1640625 37.859375 C6.86704967 34.05695984 9.63623244 30.12676608 10.34765625 24.01171875 C10.63621228 17.59689632 10.3677465 12.7300882 6.40234375 7.5234375 C2.7155805 3.51831865 -0.15281732 2.79903757 -5.5 2.5625 C-12.09096962 2.77482654 -14.30264495 4.84390034 -18.3125 9.9375 Z " fill="#A62CD2" transform="translate(287,275)"/>
<path d="M0 0 C5.62306971 2.28467981 9.09248384 5.65017027 12 11 C13.99591928 16.98775783 14.23883728 24.55047896 12.09375 30.5234375 C9.18096069 35.39675807 5.1081614 39.4459193 0 42 C-5.85739031 42.85065834 -10.36851216 42.13717124 -15.203125 38.65625 C-19.60880778 34.59535978 -21.64761576 30.52445757 -22.4765625 24.5859375 C-22.74095669 18.08740674 -22.4920718 12.91201698 -18.50390625 7.6171875 C-12.89975466 1.59090502 -8.32280061 -1.16811237 0 0 Z M-17.24609375 9.76171875 C-20.31359512 14.9945152 -20.92900099 20.03733037 -20 26 C-18.22071651 31.72769348 -15.21445875 35.90995037 -10 39 C-5.03393008 39.91395098 -1.20833338 39.5594136 3.375 37.4375 C8.42249436 32.75054095 10.64747206 27.59578501 11.3125 20.8125 C10.78952352 14.43218694 8.52530367 9.82292389 4.4375 4.9375 C-3.84662477 0.26826604 -11.74945922 1.99061475 -17.24609375 9.76171875 Z " fill="#A426D1" transform="translate(230,275)"/>
<path d="M0 0 C0.66 0.33 1.32 0.66 2 1 C1.46632813 1.35191406 0.93265625 1.70382813 0.3828125 2.06640625 C-2.08460308 3.70138924 -4.54222683 5.35056112 -7 7 C-7.83917969 7.55300781 -8.67835938 8.10601562 -9.54296875 8.67578125 C-20.24588576 15.89402761 -27.60670663 23.73370994 -32 36 C-32.48770895 39.76546457 -32.48363801 43.23837101 -32 47 C-34.475 47.495 -34.475 47.495 -37 48 C-38.88880039 41.55043769 -39.28321574 33.85388274 -36.375 27.6875 C-35.62392108 26.43312077 -34.83207629 25.20217963 -34 24 C-33.62230469 23.43023437 -33.24460937 22.86046875 -32.85546875 22.2734375 C-26.44080582 13.78515241 -16.01575019 8.37664546 -6.8125 3.375 C-5.84098999 2.84241577 -5.84098999 2.84241577 -4.84985352 2.29907227 C-3.26660776 1.46595175 -1.63608873 0.72385814 0 0 Z " fill="#E23646" transform="translate(321,192)"/>
<path d="M0 0 C1.8984375 0.828125 1.8984375 0.828125 4.5859375 2.328125 C3.5859375 5.328125 3.5859375 5.328125 1.5859375 6.328125 C-1.05166402 6.45275892 -3.6513342 6.51329073 -6.2890625 6.515625 C-7.00964844 6.52787109 -7.73023438 6.54011719 -8.47265625 6.55273438 C-12.27894162 6.56324898 -15.18919362 6.46396748 -18.4140625 4.328125 C-18.0390625 2.390625 -18.0390625 2.390625 -17.4140625 0.328125 C-12.62013486 -2.06883882 -5.06369982 -1.40931451 0 0 Z " fill="#CB9FF7" transform="translate(209.4140625,322.671875)"/>
<path d="M0 0 C3.6875 1.5 3.6875 1.5 6 3 C5 6 5 6 3 7 C0.89946284 7.14901491 -1.20687825 7.22138453 -3.3125 7.25 C-4.44300781 7.27578125 -5.57351563 7.3015625 -6.73828125 7.328125 C-10.30157168 6.96966225 -12.18239181 6.17796356 -15 4 C-15 3.34 -15 2.68 -15 2 C-10.22204829 -0.81517812 -5.39712284 -0.53737587 0 0 Z " fill="#CCA2F7" transform="translate(292,326)"/>
<path d="M0 0 C2.3125 1.5 2.3125 1.5 4 3 C3.6875 4.875 3.6875 4.875 3 7 C0 9 0 9 -3.5625 8.75 C-7 8 -7 8 -9 6 C-8.8125 4 -8.8125 4 -8 2 C-4.74236778 -0.17175481 -3.77560787 -0.46043998 0 0 Z " fill="#F35DA1" transform="translate(253,351)"/>
<path d="M0 0 C1.22589844 0.01353516 1.22589844 0.01353516 2.4765625 0.02734375 C3.41628906 0.04474609 3.41628906 0.04474609 4.375 0.0625 C4.375 0.7225 4.375 1.3825 4.375 2.0625 C3.71113281 2.16046875 3.04726562 2.2584375 2.36328125 2.359375 C-4.92124356 3.58207607 -4.92124356 3.58207607 -10.625 8.0625 C-14.00510204 13.23612558 -15.18793998 17.94365978 -15.625 24.0625 C-16.285 24.0625 -16.945 24.0625 -17.625 24.0625 C-18.21685696 17.64414013 -17.91890509 13.15438494 -14.12890625 7.8203125 C-10.0885782 3.09785114 -6.35806441 -0.09082949 0 0 Z " fill="#A01DCF" transform="translate(225.625,274.9375)"/>
<path d="M0 0 C0.99 0.66 1.98 1.32 3 2 C2.67 4.97 2.34 7.94 2 11 C-0.64 11 -3.28 11 -6 11 C-6.33 9.02 -6.66 7.04 -7 5 C-6.01 4.67 -5.02 4.34 -4 4 C-4 3.34 -4 2.68 -4 2 C-3.34 2 -2.68 2 -2 2 C-2 3.65 -2 5.3 -2 7 C-1.34 7 -0.68 7 0 7 C0 4.69 0 2.38 0 0 Z " fill="#F7EBFB" transform="translate(254,338)"/>
<path d="M0 0 C-2.33333333 2.33333333 -4.66666667 4.66666667 -7 7 C-7.99 6.67 -8.98 6.34 -10 6 C-10.825 6.66 -11.65 7.32 -12.5 8 C-13.325 8.66 -14.15 9.32 -15 10 C-15.99 9.67 -16.98 9.34 -18 9 C-16.68682429 5.06047287 -15.18611861 4.75042289 -11.5625 2.875 C-10.07943359 2.09769531 -10.07943359 2.09769531 -8.56640625 1.3046875 C-3.7733007 -1.13199021 -3.7733007 -1.13199021 0 0 Z " fill="#8237A7" transform="translate(235,161)"/>
<path d="M0 0 C3.60781485 3.76834994 6.66418533 7.62696532 7 13 C6.01 13.33 5.02 13.66 4 14 C3.76925781 13.39671875 3.53851563 12.7934375 3.30078125 12.171875 C0.56959843 5.43870133 0.56959843 5.43870133 -5 1 C-7.9969177 0.41474334 -10.95151644 0.13283153 -14 0 C-14 -0.33 -14 -0.66 -14 -1 C-4.76858639 -2.59162304 -4.76858639 -2.59162304 0 0 Z " fill="#AA33D4" transform="translate(236,278)"/>
<path d="M0 0 C0.33 0 0.66 0 1 0 C1.05845196 3.37492629 1.09374742 6.74972087 1.125 10.125 C1.15013672 11.55199219 1.15013672 11.55199219 1.17578125 13.0078125 C1.21104528 18.08583255 1.03333617 22.24487525 -1 27 C-1.99 26.67 -2.98 26.34 -4 26 C-3.69240822 24.02006459 -3.3787932 22.04106401 -3.0625 20.0625 C-2.88847656 18.96035156 -2.71445313 17.85820312 -2.53515625 16.72265625 C-2 14 -2 14 -1 13 C-0.76518307 10.81707226 -0.58636677 8.62796826 -0.4375 6.4375 C-0.35371094 5.23996094 -0.26992187 4.04242188 -0.18359375 2.80859375 C-0.12300781 1.88175781 -0.06242188 0.95492187 0 0 Z " fill="#803AAC" transform="translate(228,190)"/>
<path d="M0 0 C-0.7734375 0.37125 -0.7734375 0.37125 -1.5625 0.75 C-2.7690625 1.36875 -2.7690625 1.36875 -4 2 C-5.155 2.556875 -6.31 3.11375 -7.5 3.6875 C-11.61746996 6.05548702 -13.04232515 8.70817437 -15 13 C-15.77485832 15.77138597 -15.77485832 15.77138597 -16 18 C-18 15 -18 15 -17.875 12.6875 C-14.82223679 3.31115587 -9.46302728 -0.64156117 0 0 Z " fill="#9E18CE" transform="translate(283,276)"/>
<path d="M0 0 C1.65 0.33 3.3 0.66 5 1 C5.625 2.8125 5.625 2.8125 6 5 C5.01 6.485 5.01 6.485 4 8 C1.03 7.505 1.03 7.505 -2 7 C-2 5.35 -2 3.7 -2 2 C-1.34 2 -0.68 2 0 2 C0 1.34 0 0.68 0 0 Z " fill="#F9F2FC" transform="translate(275,305)"/>
<path d="M0 0 C0.99 0 1.98 0 3 0 C2.76627013 3.15535324 1.7298257 4.3128334 -0.375 6.75 C-4.68152574 10.20155372 -9.77162933 9.41864178 -15 9 C-12.22677256 7.1511817 -11.16148013 6.7287806 -8.0625 6.1875 C-3.89963275 5.24971122 -2.47606474 3.48483186 0 0 Z " fill="#E9D3F8" transform="translate(291,305)"/>
<path d="M0 0 C1.33333333 1.33333333 2.66666667 2.66666667 4 4 C4.9075 4.845625 5.815 5.69125 6.75 6.5625 C9 9 9 9 9 12 C5.18688695 10.5019913 3.27516449 8.37351976 1 5 C0.25 2.1875 0.25 2.1875 0 0 Z " fill="#9F19CE" transform="translate(266,303)"/>
<path d="M0 0 C0.86625 0.3403125 0.86625 0.3403125 1.75 0.6875 C-0.58333333 3.02083333 -2.91666667 5.35416667 -5.25 7.6875 C-5.91 7.6875 -6.57 7.6875 -7.25 7.6875 C-6.91753345 4.61218444 -6.61895244 3.06917494 -4.4375 0.8125 C-2.25 -0.3125 -2.25 -0.3125 0 0 Z " fill="#813FB0" transform="translate(233.25,160.3125)"/>
<path d="M0 0 C-2.57404971 3.86107457 -4.61020259 3.94319692 -9 5 C-9 4.34 -9 3.68 -9 3 C-9.66 2.67 -10.32 2.34 -11 2 C-9.54494642 1.47007308 -8.08581873 0.9513211 -6.625 0.4375 C-5.81289063 0.14746094 -5.00078125 -0.14257812 -4.1640625 -0.44140625 C-2 -1 -2 -1 0 0 Z " fill="#DAC5ED" transform="translate(336,180)"/>
<path d="M0 0 C1.62490954 -0.02698189 3.24994633 -0.04638757 4.875 -0.0625 C5.77992188 -0.07410156 6.68484375 -0.08570313 7.6171875 -0.09765625 C10 0 10 0 12 1 C12 1.66 12 2.32 12 3 C10.37581255 3.08090971 8.75048255 3.13914995 7.125 3.1875 C5.76761719 3.23970703 5.76761719 3.23970703 4.3828125 3.29296875 C3.20332031 3.14794922 3.20332031 3.14794922 2 3 C1.34 2.01 0.68 1.02 0 0 Z " fill="#AB39D5" transform="translate(277,275)"/>
<path d="M0 0 C0.33 0.99 0.66 1.98 1 3 C0.0479279 4.00596297 -0.91187346 5.00461563 -1.875 6 C-2.40867188 6.556875 -2.94234375 7.11375 -3.4921875 7.6875 C-5 9 -5 9 -7 9 C-5.44499019 5.18315774 -2.96404505 2.80804268 0 0 Z " fill="#7C38AD" transform="translate(221,223)"/>
<path d="M0 0 C-3.31371 2.20914 -4.3446021 2.22481553 -8.1875 2.125 C-9.08855469 2.10695313 -9.98960937 2.08890625 -10.91796875 2.0703125 C-11.60503906 2.04710937 -12.29210937 2.02390625 -13 2 C-13 1.67 -13 1.34 -13 1 C-11.58622218 0.63447197 -10.16879424 0.28304505 -8.75 -0.0625 C-7.96109375 -0.25972656 -7.1721875 -0.45695312 -6.359375 -0.66015625 C-3.89605178 -1.01497267 -2.34395868 -0.76877544 0 0 Z " fill="#9A0ECC" transform="translate(291,314)"/>
</svg>
